<svg width="38" height="29" viewBox="0 0 38 29" fill="none" xmlns="http://www.w3.org/2000/svg">
<path d="M32.3434 1.07045C29.7965 0.728007 27.3994 2.04399 26.5623 4.09912H23.4797V6.4308H26.3428C26.7076 8.36091 28.4214 9.95948 30.7426 10.2721C33.632 10.6607 36.3342 8.91598 36.778 6.37512C37.2193 3.8342 35.2343 1.45903 32.3434 1.07045Z" fill="#BC65E4" stroke="#BC65E4" stroke-width="0.390625"/>
<path d="M12.3828 19.8086C12.3828 19.3853 11.9924 19.0415 11.5101 19.0415H7.73107C7.24871 19.0415 6.8584 19.3853 6.8584 19.8086C6.8584 20.2311 7.24871 20.5756 7.73107 20.5756H11.5102C11.9924 20.5756 12.3828 20.2312 12.3828 19.8086Z" fill="#BC65E4" stroke="#BC65E4" stroke-width="0.390625"/>
<path d="M28.5094 13.6404L20.8987 19.9458L18.2411 20.524V15.1949H1V28.4837H18.2411V24.8259L20.7294 24.4732C21.9159 24.3245 22.7871 24.0615 23.8328 23.5493L27.0739 22.0587V28.4837H36.3442V15.6623C36.3442 11.4658 30.9605 11.4542 28.5094 13.6404ZM16.1194 26.6187H3.12187V17.0598H16.1194V20.9853L13.5701 21.5396C12.4524 21.81 11.7706 22.8019 12.018 23.7973L12.0388 23.874C12.2823 24.853 13.3444 25.5004 14.4737 25.3592L16.1194 25.1261V26.6187Z" fill="#BC65E4" stroke="#BC65E4" stroke-width="0.390625"/>
</svg>